<?xml version="1.0" standalone="no"?>
<!DOCTYPE svg PUBLIC "-//W3C//DTD SVG 20010904//EN"
 "http://www.w3.org/TR/2001/REC-SVG-20010904/DTD/svg10.dtd">
<svg version="1.0" xmlns="http://www.w3.org/2000/svg"
 width="545.000000pt" height="545.000000pt" viewBox="0 0 545.000000 545.000000"
 preserveAspectRatio="xMidYMid meet">
<metadata>
Created by potrace 1.11, written by Peter Selinger 2001-2013
</metadata>
<g transform="translate(0.000000,545.000000) scale(0.100000,-0.100000)"
fill="#000000" stroke="none">
<path d="M0 2725 l0 -2725 2725 0 2725 0 0 2725 0 2725 -2725 0 -2725 0 0
-2725z m997 2218 c-3 -10 -5 -4 -5 12 0 17 2 24 5 18 2 -7 2 -21 0 -30z m158
-1183 c83 -5 224 -12 315 -15 91 -3 196 -13 234 -21 297 -64 498 -344 466
-649 -5 -49 -15 -108 -23 -129 l-13 -39 81 -81 c92 -92 136 -166 165 -282 72
-279 -57 -571 -305 -693 -112 -55 -172 -66 -350 -64 -88 1 -249 7 -359 14
-164 9 -209 15 -256 34 -116 45 -196 120 -245 227 -50 110 -50 86 -16 810 3
81 10 150 14 154 4 4 22 8 40 8 66 1 603 -25 633 -30 42 -8 117 26 141 62 24
37 23 102 -2 136 -36 49 -72 59 -259 68 -132 6 -186 13 -231 29 -143 51 -245
163 -280 312 -15 67 -20 141 -8 152 9 9 77 8 258 -3z m1574 -39 c80 -25 162
-79 200 -131 16 -22 57 -104 91 -183 35 -78 75 -169 90 -202 15 -33 60 -135
101 -227 40 -93 76 -168 79 -168 3 0 52 86 110 190 59 106 113 193 123 196 41
13 54 -5 142 -206 48 -110 91 -200 94 -200 7 1 12 11 247 430 169 303 201 346
288 386 90 41 167 52 311 42 71 -4 135 -10 142 -13 30 -11 8 -66 -101 -259
-62 -110 -160 -284 -216 -386 -57 -102 -127 -225 -155 -275 -29 -49 -65 -112
-80 -140 -53 -96 -313 -561 -381 -682 -66 -118 -70 -123 -102 -123 -30 0 -35
5 -53 47 -11 27 -27 61 -34 78 -47 104 -113 253 -119 270 l-7 20 -15 -20 c-9
-11 -36 -58 -61 -105 -131 -242 -147 -265 -181 -268 -30 -3 -34 0 -54 45 -11
26 -71 163 -133 303 -62 140 -138 314 -170 385 -32 72 -118 267 -192 435 -347
783 -338 761 -315 784 15 16 284 -2 351 -23z m-2435 -294 c31 -41 49 -88 38
-99 -22 -22 -102 82 -102 132 0 17 3 19 20 10 10 -6 30 -25 44 -43z m4614
-289 c-3 -7 -14 -17 -26 -23 -12 -5 -22 -15 -22 -21 0 -7 -9 -14 -21 -17 -12
-3 -18 -10 -15 -16 3 -5 -1 -16 -9 -24 -8 -9 -15 -18 -15 -20 0 -3 -27 -33
-60 -66 -33 -34 -60 -66 -60 -73 0 -6 -10 -22 -22 -35 -17 -19 -19 -26 -10
-32 10 -6 7 -15 -13 -39 -23 -28 -24 -32 -9 -40 26 -14 -2 -49 -38 -48 -24 1
-68 38 -68 57 0 4 -14 23 -31 41 -60 65 -59 72 16 113 28 16 52 31 55 35 3 3
33 23 66 44 34 21 71 46 83 57 11 10 23 19 26 19 3 0 31 17 63 39 93 62 118
73 110 49z m-553 -578 c-9 -27 -21 -52 -26 -55 -16 -10 -10 32 13 92 17 44 23
53 26 35 2 -12 -4 -45 -13 -72z m395 -191 c14 -22 35 -56 48 -75 12 -19 22
-38 22 -43 0 -4 10 -16 21 -27 12 -10 25 -28 30 -39 5 -11 18 -33 29 -50 19
-29 53 -88 97 -169 22 -40 30 -86 16 -86 -19 1 -44 33 -88 112 -33 59 -119
212 -130 229 -20 32 -76 141 -85 165 -16 40 13 29 40 -17z m-4010 -1839 c8
-15 8 -20 -2 -20 -7 0 -19 9 -26 20 -10 17 -10 20 3 20 8 0 19 -9 25 -20z"/>
<path d="M1306 2463 c-3 -42 -6 -100 -6 -128 l0 -53 118 -6 c370 -18 398 -19
430 -2 66 34 95 109 64 166 -35 65 -62 73 -291 86 -113 7 -229 13 -257 13
l-51 1 -7 -77z"/>
<path d="M4459 3514 l-64 -95 -45 6 c-25 4 -49 11 -54 16 -6 5 -18 9 -28 9
-10 0 -27 9 -38 20 l-20 20 -1 -22 c0 -13 -3 -17 -6 -10 -4 10 -11 5 -24 -15
-23 -35 -24 -62 -2 -70 9 -4 46 -24 81 -46 35 -21 79 -41 96 -44 29 -4 35 -1
59 36 15 23 24 41 20 41 -5 0 0 5 10 11 9 5 17 19 17 29 0 11 5 20 11 20 5 0
16 15 24 33 8 19 21 39 29 47 9 7 16 21 16 30 0 29 11 50 26 50 19 0 18 16 -2
24 -32 12 -42 4 -105 -90z"/>
</g>
</svg>
